<svg width="228" height="231" viewBox="0 0 228 231" fill="none" xmlns="http://www.w3.org/2000/svg">
<g clip-path="url(#clip0_49_33)">
<path fill-rule="evenodd" clip-rule="evenodd" d="M228 127.286C222.143 185.539 173.339 231 114 231C54.6615 231 5.85732 185.539 0 127.286H68.7024C73.8946 147.619 92.2067 162.643 114 162.643C135.794 162.643 154.106 147.619 159.298 127.286H228ZM228 103.714C222.143 45.4614 173.339 0 114 0C54.6615 0 5.85741 45.4614 1.95621e-05 103.714H68.7024C73.8946 83.3811 92.2067 68.3571 114 68.3571C135.794 68.3571 154.106 83.3811 159.298 103.714H228Z" fill="#FCF9F9"/>
<mask id="mask0_49_33" style="mask-type:luminance" maskUnits="userSpaceOnUse" x="0" y="0" width="228" height="231">
<path fill-rule="evenodd" clip-rule="evenodd" d="M228 127.286C222.143 185.539 173.339 231 114 231C54.6615 231 5.85732 185.539 0 127.286H68.7024C73.8946 147.619 92.2067 162.643 114 162.643C135.794 162.643 154.106 147.619 159.298 127.286H228ZM228 103.714C222.143 45.4614 173.339 0 114 0C54.6615 0 5.85741 45.4614 1.95621e-05 103.714H68.7024C73.8946 83.3811 92.2067 68.3571 114 68.3571C135.794 68.3571 154.106 83.3811 159.298 103.714H228Z" fill="white"/>
</mask>
<g mask="url(#mask0_49_33)">
<path d="M228 127.286L243.105 128.769L244.762 112.286H228V127.286ZM-0.000343257 127.286V112.286H-16.7627L-15.1053 128.769L-0.000343257 127.286ZM68.702 127.286L83.4199 123.616L80.5271 112.286H68.702V127.286ZM159.297 127.286V112.286H147.473L144.579 123.616L159.297 127.286ZM228 103.714V118.714H244.762L243.105 102.231L228 103.714ZM-0.000322991 103.714L-15.1053 102.231L-16.7627 118.714H-0.000322991V103.714ZM68.702 103.714V118.714H80.5271L83.4199 107.384L68.702 103.714ZM159.297 103.714L144.579 107.384L147.473 118.714H159.297V103.714ZM114 246C181.46 246 236.508 194.375 243.105 128.769L212.895 125.803C207.777 176.702 165.216 216 114 216V246ZM-15.1053 128.769C-8.50859 194.375 46.5393 246 114 246V216C62.783 216 20.2225 176.702 15.1046 125.803L-15.1053 128.769ZM68.702 112.286H-0.000343257V142.286H68.702V112.286ZM53.9841 130.956C60.7896 157.607 84.9011 177.643 114 177.643V147.643C99.5113 147.643 86.9986 137.63 83.4199 123.616L53.9841 130.956ZM114 177.643C143.098 177.643 167.21 157.607 174.015 130.956L144.579 123.616C141.001 137.63 128.488 147.643 114 147.643V177.643ZM228 112.286H159.297V142.286H228V112.286ZM243.105 102.231C236.508 36.6246 181.46 -15 114 -15V15C165.216 15 207.777 54.2982 212.895 105.197L243.105 102.231ZM114 -15C46.5396 -15 -8.50846 36.6246 -15.1053 102.231L15.1047 105.197C20.2226 54.2982 62.783 15 114 15V-15ZM-0.000322991 118.714H68.702V88.7142H-0.000322991V118.714ZM114 53.3571C84.9011 53.3571 60.7896 73.3926 53.9841 100.044L83.4199 107.384C86.9986 93.3696 99.5113 83.3571 114 83.3571V53.3571ZM174.015 100.044C167.21 73.3926 143.098 53.3571 114 53.3571V83.3571C128.488 83.3571 141.001 93.3696 144.579 107.384L174.015 100.044ZM159.297 118.714H228V88.7142H159.297V118.714Z" fill="#E74E49"/>
</g>
<path d="M114 139C127.255 139 138 128.255 138 115C138 101.745 127.255 91 114 91C100.745 91 90 101.745 90 115C90 128.255 100.745 139 114 139Z" fill="#E74E49"/>
</g>
<defs>
<clipPath id="clip0_49_33">
<rect width="228" height="231" fill="white"/>
</clipPath>
</defs>
</svg>
